<svg version="1.1" xmlns="http://www.w3.org/2000/svg" viewBox="0 0 2633.8278616999078 1376.0470415898617" width="5267.6557233998155" height="2752.0940831797234">
  <!-- svg-source:excalidraw -->
  
  <defs>
    <style>
      @font-face {
        font-family: "Virgil";
        src: url("https://excalidraw.com/Virgil.woff2");
      }
      @font-face {
        font-family: "Cascadia";
        src: url("https://excalidraw.com/Cascadia.woff2");
      }
    </style>
  </defs>
  <rect x="0" y="0" width="2633.8278616999078" height="1376.0470415898617" fill="#ffffff"></rect><g stroke-linecap="round" transform="translate(375.93455505371094 1232.3334490605648) rotate(0 86.66140747070312 54.404144287109375)"><path d="M1.07 -0.6 C54.58 -0.6, 111.34 -1.58, 173.69 0.17 M-0.53 -0.47 C45.77 -0.31, 90.06 -0.38, 173.13 -0.7 M175.28 -0.31 C171.45 23.81, 174.04 51.66, 172.79 108.24 M173.16 -0.88 C173.46 38.41, 172.77 78.82, 174.12 109.45 M173.12 110.14 C111.9 108.09, 53.43 107.82, 1.68 106.98 M173.1 108.96 C122.18 108.35, 69.36 108.55, -0.47 107.87 M0.24 108.11 C1.26 78.61, 0.47 45.93, 1.06 -1.37 M0.15 108.1 C-0.95 68.53, -0.17 29.49, 0.47 0.29" stroke="#000000" stroke-width="1" fill="none"></path></g><g transform="translate(420.59596252441406 1274.2375933476742) rotate(0 42 12.5)"><text x="42" y="18" font-family="Virgil, Segoe UI Emoji" font-size="20px" fill="#000000" text-anchor="middle" style="white-space: pre;" direction="ltr">Local pc</text></g><g stroke-linecap="round"><g transform="translate(575.6135101318359 1286.3182818242367) rotate(0 59.656411791513676 -0.2146529193523179)"><path d="M0.15 0.69 C20.34 0.81, 100.5 0.58, 120.54 0.51 M-1.23 0.01 C18.88 -0.18, 99.6 -0.87, 119.75 -1.15" stroke="#000000" stroke-width="1" fill="none"></path></g><g transform="translate(575.6135101318359 1286.3182818242367) rotate(0 59.656411791513676 -0.2146529193523179)"><path d="M92.83 9.92 C100.22 6.93, 106.97 4.7, 119.5 0.1 M91.72 8.82 C101.06 5.35, 110.24 3.4, 119.57 -2.04" stroke="#000000" stroke-width="1" fill="none"></path></g><g transform="translate(575.6135101318359 1286.3182818242367) rotate(0 59.656411791513676 -0.2146529193523179)"><path d="M92.6 -10.6 C100.02 -8.41, 106.83 -5.47, 119.5 0.1 M91.5 -11.7 C101.01 -8.51, 110.27 -3.8, 119.57 -2.04" stroke="#000000" stroke-width="1" fill="none"></path></g></g><g stroke-linecap="round" transform="translate(731.9822845458984 1230.0604082890804) rotate(0 102.9556884765625 63.4112548828125)"><path d="M-0.75 -0.66 C77.87 -0.52, 153.93 -2.07, 205.34 1.11 M-0.71 0.29 C57.7 2.01, 114.87 2.53, 205.32 -0.7 M207.54 -1.82 C206.59 30.45, 206.73 63.81, 205.68 125 M206.07 -0.02 C207.11 34.63, 206.99 71.07, 206.64 127.27 M206.39 126.52 C128.7 125.59, 54.41 125.56, -1.2 127.89 M206.09 127.52 C140.46 126.45, 75.41 126.26, -0.15 126.59 M0.19 125.68 C1.36 84.15, -0.06 41.26, 1.84 -0.75 M0.75 126.83 C-0.3 94.86, -1.28 60.17, -0.01 0.25" stroke="#000000" stroke-width="1" fill="none"></path></g><g transform="translate(770.4379730224609 1280.971663171893) rotate(0 64.5 12.5)"><text x="64.5" y="18" font-family="Virgil, Segoe UI Emoji" font-size="20px" fill="#000000" text-anchor="middle" style="white-space: pre;" direction="ltr">Docker image</text></g><g stroke-linecap="round"><g transform="translate(973.7781432621973 1295.3343873803078) rotate(0 59.91434998698071 -0.7904326334735856)"><path d="M0.56 0.37 C20.8 0.4, 100.41 0.24, 120.43 -0.01 M-0.6 -0.48 C19.57 -0.81, 99.46 -1.99, 119.58 -1.96" stroke="#000000" stroke-width="1" fill="none"></path></g><g transform="translate(973.7781432621973 1295.3343873803078) rotate(0 59.91434998698071 -0.7904326334735856)"><path d="M92.1 8.85 C98.21 6.82, 102.45 2.46, 120.99 -1.6 M91.83 8.85 C99.63 5.16, 107.99 3.28, 119.48 -2.31" stroke="#000000" stroke-width="1" fill="none"></path></g><g transform="translate(973.7781432621973 1295.3343873803078) rotate(0 59.91434998698071 -0.7904326334735856)"><path d="M91.94 -11.68 C98.06 -9.2, 102.33 -9.07, 120.99 -1.6 M91.67 -11.67 C99.42 -9.7, 107.83 -5.92, 119.48 -2.31" stroke="#000000" stroke-width="1" fill="none"></path></g></g><g stroke-linecap="round" transform="translate(1144.8829803466797 1239.2245318242367) rotate(0 102.9556884765625 63.4112548828125)"><path d="M1.72 -0.42 C72.32 -0.7, 146.66 -0.57, 207.64 1.56 M-0.22 0.66 C78.42 1.72, 156.91 0.54, 205.4 0.03 M206.63 1.01 C206.27 48.87, 206.07 93.64, 204.28 126.26 M206.77 0.66 C204.11 33.94, 204.31 68.12, 205.61 127.65 M207.57 125.25 C147.98 128.52, 90.77 127.49, 1.06 126.4 M205.13 127.11 C148.16 128.43, 89.75 128.04, -0.07 127.3 M1.36 125.64 C-0.11 92.81, -2.14 54.39, 1.2 -1.87 M-0.2 126.92 C0.41 99.44, 0.13 69.98, 0.68 0.03" stroke="#000000" stroke-width="1" fill="none"></path></g><g transform="translate(1206.8386688232422 1290.1357867070492) rotate(0 41 12.5)"><text x="41" y="18" font-family="Virgil, Segoe UI Emoji" font-size="20px" fill="#000000" text-anchor="middle" style="white-space: pre;" direction="ltr">print(df)</text></g><g transform="translate(566.7563934326172 1242.6751543828304) rotate(0 61.5 12.5)"><text x="0" y="18" font-family="Virgil, Segoe UI Emoji" font-size="20px" fill="#000000" text-anchor="start" style="white-space: pre;" direction="ltr">processing.py</text></g><g stroke-linecap="round"><g transform="translate(784.5364694755406 1215.1078098285548) rotate(0 7.762418546154947 -62.70075572906177)"><path d="M-1.17 -0.41 C1.53 -21.25, 13.8 -104.4, 16.69 -124.99 M0.42 -1.67 C2.91 -22.34, 13.3 -102.88, 15.76 -123.59" stroke="#000000" stroke-width="1" fill="none"></path></g><g transform="translate(784.5364694755406 1215.1078098285548) rotate(0 7.762418546154947 -62.70075572906177)"><path d="M21.78 -94.28 C19.72 -105.23, 19.13 -115.39, 14.59 -124.31 M22.76 -94.46 C20.71 -106.17, 17.02 -117.4, 14.84 -123.71" stroke="#000000" stroke-width="1" fill="none"></path></g><g transform="translate(784.5364694755406 1215.1078098285548) rotate(0 7.762418546154947 -62.70075572906177)"><path d="M1.42 -96.81 C6.38 -106.7, 12.82 -115.98, 14.59 -124.31 M2.39 -97 C8.28 -107.78, 12.53 -118.02, 14.84 -123.71" stroke="#000000" stroke-width="1" fill="none"></path></g></g><g stroke-linecap="round" transform="translate(717.3240203857422 984.8385454961118) rotate(0 80.5 44)"><path d="M52.78 1.93 C63.51 -1.13, 78.63 -1.17, 91.03 -0.05 C103.42 1.06, 117.08 4.5, 127.16 8.63 C137.24 12.77, 145.78 18.98, 151.51 24.78 C157.25 30.58, 161.5 36.72, 161.59 43.45 C161.68 50.18, 158 58.86, 152.05 65.14 C146.1 71.43, 136.13 77.52, 125.88 81.18 C115.64 84.83, 102.98 86.32, 90.59 87.07 C78.2 87.81, 63.19 87.86, 51.55 85.66 C39.91 83.46, 29.09 79.01, 20.77 73.86 C12.44 68.7, 4.76 61.5, 1.59 54.74 C-1.59 47.98, -1.52 40.13, 1.72 33.3 C4.95 26.46, 10.54 19.15, 20.98 13.72 C31.42 8.29, 55.07 2.84, 64.38 0.71 C73.69 -1.42, 76.51 0.06, 76.85 0.95 M66.66 -0.79 C78.04 -2.57, 92.66 -1.44, 104.32 1.02 C115.98 3.47, 127.98 8.99, 136.62 13.96 C145.25 18.93, 152.12 24.25, 156.12 30.82 C160.13 37.4, 162.88 46.79, 160.65 53.41 C158.43 60.03, 150.99 65.41, 142.78 70.55 C134.57 75.69, 122.97 81.4, 111.4 84.26 C99.82 87.12, 85.53 88.09, 73.33 87.71 C61.13 87.33, 48.61 85.73, 38.21 82 C27.82 78.26, 17.44 71.37, 10.94 65.32 C4.45 59.27, -0.05 52.22, -0.75 45.69 C-1.45 39.16, 1.15 32.47, 6.74 26.15 C12.33 19.84, 22.68 11.88, 32.78 7.79 C42.88 3.7, 61.7 2.72, 67.35 1.62 C72.99 0.53, 66.64 0.62, 66.64 1.19" stroke="#000000" stroke-width="1" fill="none"></path></g><g transform="translate(751.8240203857422 1016.3385454961118) rotate(0 46 12.5)"><text x="46" y="18" font-family="Virgil, Segoe UI Emoji" font-size="20px" fill="#000000" text-anchor="middle" style="white-space: pre;" direction="ltr">AWS ECR</text></g><g stroke-linecap="round" transform="translate(1030.0871447846855 958.4447253947774) rotate(0 80.5 61.00000000000003)"><path d="M106.77 3.61 C117.85 5.61, 129.06 11.99, 137.23 18.08 C145.4 24.17, 151.81 31.91, 155.8 40.17 C159.8 48.42, 162.3 58.84, 161.22 67.59 C160.15 76.34, 155.61 85.26, 149.36 92.67 C143.1 100.09, 133.39 107.11, 123.71 112.08 C114.04 117.05, 102.93 121.5, 91.31 122.51 C79.68 123.52, 65.29 121.28, 53.97 118.15 C42.64 115.02, 31.37 109.9, 23.35 103.73 C15.33 97.55, 9.8 89.16, 5.86 81.1 C1.92 73.03, -1.39 64.1, -0.26 55.36 C0.86 46.62, 6.3 36.25, 12.62 28.67 C18.95 21.09, 28.06 14.62, 37.69 9.86 C47.33 5.11, 58.58 1.15, 70.43 0.13 C82.28 -0.9, 102.04 2.91, 108.79 3.72 C115.54 4.53, 111.2 4.05, 110.91 5 M115.85 7.83 C126.29 10.74, 138.68 16.63, 145.78 23.43 C152.88 30.23, 156.35 40.1, 158.42 48.64 C160.5 57.18, 160.73 65.87, 158.23 74.66 C155.73 83.45, 150.97 94.17, 143.44 101.39 C135.91 108.6, 123.76 114.49, 113.07 117.95 C102.38 121.4, 90.91 122.53, 79.3 122.11 C67.68 121.69, 53.88 119.47, 43.39 115.42 C32.9 111.38, 23.48 104.75, 16.34 97.85 C9.2 90.95, 2.98 82.5, 0.55 74.02 C-1.87 65.54, -1.06 55.87, 1.79 46.99 C4.63 38.1, 9.99 27.63, 17.6 20.72 C25.21 13.82, 36.66 9.06, 47.44 5.55 C58.23 2.03, 70.9 -0.58, 82.3 -0.37 C93.71 -0.16, 110.3 5.33, 115.87 6.81 C121.45 8.3, 115.92 7.57, 115.77 8.53" stroke="#000000" stroke-width="1" fill="none"></path></g><g transform="translate(1073.0871447846855 1006.9447253947774) rotate(0 37.5 12.5)"><text x="37.5" y="18" font-family="Virgil, Segoe UI Emoji" font-size="20px" fill="#000000" text-anchor="middle" style="white-space: pre;" direction="ltr">Lambda</text></g><g stroke-linecap="round"><g transform="translate(888.9965312117505 1025.078576731883) rotate(0 66.05715750760027 -2.0654131463616636)"><path d="M-0.68 -0.56 C21.46 -1.44, 110.39 -5.14, 132.79 -5.88 M1.16 1.75 C23.11 1.13, 109.6 -2.94, 131.6 -4.39" stroke="#000000" stroke-width="1" fill="none"></path></g><g transform="translate(888.9965312117505 1025.078576731883) rotate(0 66.05715750760027 -2.0654131463616636)"><path d="M103.08 6.63 C112.13 4.84, 121.76 2.26, 130.33 -4.37 M104.24 6.99 C110.56 3.57, 118.51 0.38, 132.31 -4.58" stroke="#000000" stroke-width="1" fill="none"></path></g><g transform="translate(888.9965312117505 1025.078576731883) rotate(0 66.05715750760027 -2.0654131463616636)"><path d="M101.95 -13.86 C111.23 -9.57, 121.2 -6.07, 130.33 -4.37 M103.11 -13.5 C109.64 -11.4, 117.89 -9.09, 132.31 -4.58" stroke="#000000" stroke-width="1" fill="none"></path></g></g><g stroke-linecap="round" transform="translate(1089.3032684326172 666.2587267705259) rotate(0 93.151123046875 65.17404174804688)"><path d="M93.4 -0.64 C122.5 22.29, 154.83 44.92, 187.28 64.64 M94.01 0.91 C120.44 18.5, 145.31 36.58, 185.75 66.49 M184.97 64.06 C149.35 89.51, 113.74 117.65, 94.33 129.56 M186.83 65.62 C151.28 91.2, 118.1 113.99, 94.98 129.54 M95.22 130.93 C60.05 106.38, 27.31 82.73, 1.61 67.09 M94.84 129.68 C73.7 117.4, 54.75 103.02, -0.82 65.76 M-0.18 67.7 C25.66 48.88, 54.44 30.15, 95.78 0.19 M0.94 66.19 C23.93 48.45, 50.34 30.79, 93.71 -0.48" stroke="#000000" stroke-width="1" fill="none"></path></g><g transform="translate(1123.9543914794922 718.9327685185727) rotate(0 58.5 12.5)"><text x="58.5" y="18" font-family="Virgil, Segoe UI Emoji" font-size="20px" fill="#000000" text-anchor="middle" style="white-space: pre;" direction="ltr">EventBridge</text></g><g stroke-linecap="round" transform="translate(1002.3286590576172 810.4821001836118) rotate(0 185.87103271484375 21.0377197265625)"><path d="M-0.59 1.05 C92.3 -1.55, 182.27 -2.08, 370.77 0.02 M-0.61 0.12 C129.43 -1.11, 258.64 -1.08, 371.89 -0.58 M371.31 0.89 C372.14 12.87, 371.25 26.16, 369.75 43.13 M372.02 0.72 C372.85 13.2, 371.26 26.54, 371.06 41.86 M372.03 41.07 C246.09 44.04, 123.18 44.69, 1 42.95 M371.31 41.84 C268.73 41.92, 164.66 41.77, 0.07 41.99 M0.37 43.2 C-0.86 28.8, -1.69 9.97, -1.32 0.62 M1 42.63 C-1.11 26.4, 0.44 9.78, 0.92 -0.52" stroke="#000000" stroke-width="1" fill="none"></path></g><g transform="translate(1081.699691772461 819.0198199101743) rotate(0 106.5 12.5)"><text x="106.5" y="18" font-family="Virgil, Segoe UI Emoji" font-size="20px" fill="#000000" text-anchor="middle" style="white-space: pre;" direction="ltr">"run every 15 minutes"</text></g><g stroke-linecap="round"><g transform="translate(1217.6075062610826 1029.309284173083) rotate(0 61.107214904532725 1.4195265818189569)"><path d="M-0.05 0.12 C20.62 0.46, 103 1.77, 123.74 2.34 M-1.53 -0.86 C19.03 -0.37, 102.03 3.27, 122.98 3.7" stroke="#000000" stroke-width="1" fill="none"></path></g><g transform="translate(1217.6075062610826 1029.309284173083) rotate(0 61.107214904532725 1.4195265818189569)"><path d="M94.67 13.61 C101.82 12.15, 111.84 8.99, 124.18 2.82 M93.95 12.42 C99.8 10.46, 107.32 10.05, 123.85 3.9" stroke="#000000" stroke-width="1" fill="none"></path></g><g transform="translate(1217.6075062610826 1029.309284173083) rotate(0 61.107214904532725 1.4195265818189569)"><path d="M95.36 -6.9 C102.36 -2.64, 112.19 -0.08, 124.18 2.82 M94.63 -8.09 C100.22 -5.78, 107.59 -1.91, 123.85 3.9" stroke="#000000" stroke-width="1" fill="none"></path></g></g><g stroke-linecap="round" transform="translate(1366.4806365966797 965.5873247929868) rotate(0 80.5 61)"><path d="M88.41 0.29 C99.4 0.25, 113.15 3.79, 123 8.3 C132.85 12.81, 141.32 19.78, 147.5 27.36 C153.68 34.93, 158.44 44.88, 160.09 53.76 C161.74 62.64, 161.14 72.39, 157.4 80.65 C153.67 88.9, 146.04 96.99, 137.7 103.3 C129.36 109.61, 118.17 115.43, 107.37 118.52 C96.58 121.61, 84.41 122.86, 72.93 121.85 C61.45 120.83, 48.46 117.15, 38.48 112.42 C28.49 107.69, 19.46 100.83, 13.02 93.47 C6.57 86.1, 1.29 76.87, -0.21 68.2 C-1.71 59.54, 0.13 49.67, 4 41.47 C7.87 33.26, 14.81 25.45, 22.99 18.97 C31.17 12.49, 40.75 5.63, 53.09 2.58 C65.44 -0.47, 88.67 0.45, 97.05 0.69 C105.43 0.93, 103.53 2.78, 103.39 4.02 M89.49 -1.04 C100.8 -0.89, 114.3 4.67, 124.2 9.38 C134.11 14.09, 142.7 19.96, 148.92 27.22 C155.15 34.48, 160.33 43.98, 161.56 52.94 C162.8 61.89, 160.49 72.32, 156.33 80.96 C152.18 89.61, 144.96 98.45, 136.64 104.79 C128.33 111.12, 117.06 116.25, 106.44 119 C95.82 121.75, 84.53 122.12, 72.94 121.28 C61.35 120.43, 46.94 118.63, 36.88 113.93 C26.83 109.24, 18.73 100.85, 12.63 93.11 C6.54 85.36, 1.87 76.23, 0.3 67.44 C-1.27 58.64, -0.39 48.41, 3.21 40.34 C6.82 32.28, 13.33 25.35, 21.94 19.05 C30.56 12.75, 43.46 5.77, 54.89 2.55 C66.32 -0.66, 84.67 -0.02, 90.51 -0.23 C96.35 -0.43, 90.55 0.32, 89.95 1.33" stroke="#000000" stroke-width="1" fill="none"></path></g><g transform="translate(1399.9806365966797 1014.0873247929868) rotate(0 47 12.5)"><text x="47" y="18" font-family="Virgil, Segoe UI Emoji" font-size="20px" fill="#000000" text-anchor="middle" style="white-space: pre;" direction="ltr">AWS RDS</text></g><g stroke-linecap="round"><g transform="translate(1159.4893035888672 870.7599322148618) rotate(0 -13.081327641755365 35.892285443097336)"><path d="M0.99 -0.98 C-3.73 11.25, -22.41 60.36, -27.16 72.76 M0.06 1.12 C-4.37 13.03, -20.58 59.13, -24.77 70.9" stroke="#000000" stroke-width="1" fill="none"></path></g></g><g transform="translate(1388.6331024169922 1101.019270593768) rotate(0 50.5 12.5)"><text x="0" y="18" font-family="Virgil, Segoe UI Emoji" font-size="20px" fill="#000000" text-anchor="start" style="white-space: pre;" direction="ltr">Database</text></g><g transform="translate(1041.1584930419922 1094.8219439336117) rotate(0 79 12.5)"><text x="0" y="18" font-family="Virgil, Segoe UI Emoji" font-size="20px" fill="#000000" text-anchor="start" style="white-space: pre;" direction="ltr">Run a container</text></g><g transform="translate(724.0378875732422 951.8238055058774) rotate(0 75 12.5)"><text x="0" y="18" font-family="Virgil, Segoe UI Emoji" font-size="20px" fill="#000000" text-anchor="start" style="white-space: pre;" direction="ltr">Store an image</text></g><g transform="translate(10 939.1153704472837) rotate(0 319 25)"><text x="0" y="18" font-family="Virgil, Segoe UI Emoji" font-size="20px" fill="#000000" text-anchor="start" style="white-space: pre;" direction="ltr">- (couple times a day) Go and get data from instant prize site</text><text x="0" y="43" font-family="Virgil, Segoe UI Emoji" font-size="20px" fill="#000000" text-anchor="start" style="white-space: pre;" direction="ltr">- (daily) Monitor games</text></g><g stroke-linecap="round" transform="translate(41.553444550801714 191.94534418900696) rotate(0 224 97.5)"><path d="M-0.69 0.72 C172.49 1.02, 346.65 1.25, 447.22 -0.94 M-0.24 -0.38 C135.57 -0.11, 271.82 -0.53, 447.98 0.28 M449.79 1.53 C445.46 72.29, 447.11 148.04, 448.7 195.61 M447.55 0.62 C449.5 38.28, 447.97 78.03, 448.72 194.65 M447.73 194.22 C311.98 195.8, 174.68 197.04, 0.22 194.96 M448.36 194.75 C276.45 196.77, 104.03 196.41, 0.32 194.57 M0.08 194.36 C-1.22 139.84, -0.66 87.75, 0.42 -1.27 M-0.45 194.76 C1.94 152.61, 2.38 111.21, -0.05 0.92" stroke="#000000" stroke-width="1" fill="none"></path></g><g transform="translate(124.55344455080171 214.44534418900696) rotate(0 141 75)"><text x="141" y="18" font-family="Virgil, Segoe UI Emoji" font-size="20px" fill="#000000" text-anchor="middle" style="white-space: pre;" direction="ltr">#5 Monitor Games</text><text x="141" y="43" font-family="Virgil, Segoe UI Emoji" font-size="20px" fill="#000000" text-anchor="middle" style="white-space: pre;" direction="ltr">- Overall odds</text><text x="141" y="68" font-family="Virgil, Segoe UI Emoji" font-size="20px" fill="#000000" text-anchor="middle" style="white-space: pre;" direction="ltr">- Price</text><text x="141" y="93" font-family="Virgil, Segoe UI Emoji" font-size="20px" fill="#000000" text-anchor="middle" style="white-space: pre;" direction="ltr">- Grand prizes (and amount)</text><text x="141" y="118" font-family="Virgil, Segoe UI Emoji" font-size="20px" fill="#000000" text-anchor="middle" style="white-space: pre;" direction="ltr">- Game number</text><text x="141" y="143" font-family="Virgil, Segoe UI Emoji" font-size="20px" fill="#000000" text-anchor="middle" style="white-space: pre;" direction="ltr">- Location</text></g><g stroke-linecap="round" transform="translate(44.51178713897565 10) rotate(0 224.89836482973024 88.20476072053827)"><path d="M-0.71 0.31 C134.9 -0.75, 272.2 -0.75, 449.4 -0.33 M-0.46 -0.31 C170.74 -1.35, 341.04 -1.85, 449.84 0.39 M450.86 1.45 C449.17 36.25, 449.74 72.96, 450.42 176.29 M449.5 0.29 C449.1 50.15, 449.12 101.6, 450.25 175.95 M450.74 177.23 C324.59 176.29, 199.41 177.12, 0.48 175.69 M449.56 176.42 C271.1 176.61, 92.7 176.56, -0.36 176.16 M0.49 174.61 C1.37 129.86, 2.49 83.45, -0.65 -0.44 M0.82 175.93 C0 128.61, 0.56 83.04, -0.34 0.66" stroke="#000000" stroke-width="1" fill="none"></path></g><g transform="translate(223.91015196870597 85.70476072053827) rotate(0 45.5 12.5)"><text x="45.5" y="18" font-family="Virgil, Segoe UI Emoji" font-size="20px" fill="#000000" text-anchor="middle" style="white-space: pre;" direction="ltr">#1 - #3 </text></g><g transform="translate(822.849368185802 208.2322200857542) rotate(0 45 12.5)"><text x="0" y="18" font-family="Virgil, Segoe UI Emoji" font-size="20px" fill="#000000" text-anchor="start" style="white-space: pre;" direction="ltr">scrape.py</text></g><g stroke-linecap="round"><g transform="translate(516.5314675538098 223.65726462261716) rotate(0 371.9320159534064 27.096539986020247)"><path d="M0.99 0.97 C124.73 9.72, 617.76 43.91, 741.47 52.47 M0.06 0.44 C124.26 9.35, 619.96 44.95, 743.81 53.75" stroke="#000000" stroke-width="1" fill="none"></path></g><g transform="translate(516.5314675538098 223.65726462261716) rotate(0 371.9320159534064 27.096539986020247)"><path d="M716.58 60.78 C720.6 61.74, 726.75 56.15, 742.58 52.57 M714.23 60.98 C721.62 60.33, 725.96 59.42, 742.92 53.98" stroke="#000000" stroke-width="1" fill="none"></path></g><g transform="translate(516.5314675538098 223.65726462261716) rotate(0 371.9320159534064 27.096539986020247)"><path d="M718.04 40.31 C721.74 45.86, 727.56 44.83, 742.58 52.57 M715.7 40.51 C722.78 43.98, 726.83 47.21, 742.92 53.98" stroke="#000000" stroke-width="1" fill="none"></path></g></g><g stroke-linecap="round" transform="translate(1264.708721106118 231.56827596960136) rotate(0 71.5 54)"><path d="M77.62 0.76 C88.32 0.73, 101.21 4.36, 110.41 8.66 C119.62 12.95, 127.39 19.42, 132.86 26.53 C138.32 33.65, 142.6 42.81, 143.19 51.35 C143.78 59.9, 141.09 69.98, 136.4 77.79 C131.71 85.59, 123.91 93.38, 115.03 98.18 C106.14 102.97, 94.05 105.52, 83.11 106.57 C72.17 107.61, 59.91 106.88, 49.37 104.43 C38.83 101.99, 27.68 97.92, 19.87 91.9 C12.07 85.88, 5.52 76.6, 2.53 68.32 C-0.46 60.05, -0.44 50.48, 1.91 42.24 C4.27 34.01, 9.7 25.35, 16.67 18.91 C23.65 12.48, 32.62 6.48, 43.77 3.61 C54.92 0.74, 76.08 1.96, 83.57 1.67 C91.05 1.38, 89.08 1.18, 88.68 1.89 M51.14 1.2 C60.89 -1.56, 74.73 0.54, 85.84 2.28 C96.94 4.02, 109.39 6.5, 117.78 11.66 C126.17 16.82, 132 25.45, 136.16 33.24 C140.32 41.04, 143.27 50.2, 142.73 58.43 C142.19 66.67, 139.01 75.53, 132.91 82.65 C126.81 89.77, 115.73 96.97, 106.11 101.17 C96.48 105.37, 85.84 107.61, 75.18 107.84 C64.53 108.07, 52.1 106.19, 42.18 102.55 C32.25 98.91, 22.52 92.6, 15.63 86.01 C8.74 79.41, 3.02 71.33, 0.83 62.97 C-1.36 54.61, -1.05 43.69, 2.48 35.85 C6.01 28.02, 13.62 21.67, 22 15.95 C30.38 10.24, 47.89 3.66, 52.74 1.55 C57.6 -0.57, 50.9 2.23, 51.14 3.28" stroke="#000000" stroke-width="1" fill="none"></path></g><g transform="translate(1320.208721106118 273.06827596960136) rotate(0 16 12.5)"><text x="16" y="18" font-family="Virgil, Segoe UI Emoji" font-size="20px" fill="#000000" text-anchor="middle" style="white-space: pre;" direction="ltr">DB</text></g><g stroke-linecap="round" transform="translate(1596.2708682124735 235.52446108373226) rotate(0 119.5 75)"><path d="M-0.3 -1.1 C60.06 -0.46, 124.14 1.41, 240.21 0.69 M0.22 -0.31 C59.8 -0.59, 121.09 -0.7, 238.29 0.81 M237.17 0.51 C240.49 47.77, 241.67 99.81, 239.47 150.3 M239.65 -0.41 C239.35 31.83, 240.02 61.17, 238.55 150.12 M238.65 149.61 C151.34 149.58, 63.87 149.37, 1.01 149.27 M238.29 150.32 C186.94 148.37, 134.34 149.09, 0.05 149.65 M-0.68 149.63 C-0.28 102.38, -0.79 55.65, -0.99 1.03 M0.87 149.07 C-0.95 93.55, -1.16 36.96, -0.41 -0.78" stroke="#000000" stroke-width="1" fill="none"></path></g><g transform="translate(1678.2708682124735 298.02446108373226) rotate(0 37.5 12.5)"><text x="37.5" y="18" font-family="Virgil, Segoe UI Emoji" font-size="20px" fill="#000000" text-anchor="middle" style="white-space: pre;" direction="ltr">Analyze</text></g><g stroke-linecap="round"><g transform="translate(1431.9470480804825 293.43695445503846) rotate(0 63.728416913684555 4.9135983510970505)"><path d="M-0.69 0.61 C20.57 1.89, 106.75 7.3, 128.15 8.47 M1.15 -0.11 C22.17 1.29, 105.54 8.52, 127.05 9.94" stroke="#000000" stroke-width="1" fill="none"></path></g><g transform="translate(1431.9470480804825 293.43695445503846) rotate(0 63.728416913684555 4.9135983510970505)"><path d="M99.17 17.53 C108.06 14.11, 116.75 11.68, 128.65 8.74 M98.64 18.05 C106.72 15.06, 116.15 13.61, 126.56 9.31" stroke="#000000" stroke-width="1" fill="none"></path></g><g transform="translate(1431.9470480804825 293.43695445503846) rotate(0 63.728416913684555 4.9135983510970505)"><path d="M100.76 -2.93 C109.22 0.84, 117.35 5.61, 128.65 8.74 M100.22 -2.41 C107.77 1.13, 116.69 6.22, 126.56 9.31" stroke="#000000" stroke-width="1" fill="none"></path></g></g><g transform="translate(2012.3025988109766 315.0120153961163) rotate(0 294 37.5)"><text x="0" y="18" font-family="Virgil, Segoe UI Emoji" font-size="20px" fill="#000000" text-anchor="start" style="white-space: pre;" direction="ltr">- Changes over time (within each game / prize denomination)</text><text x="0" y="43" font-family="Virgil, Segoe UI Emoji" font-size="20px" fill="#000000" text-anchor="start" style="white-space: pre;" direction="ltr">- Average ticket cost without grand prizes</text><text x="0" y="68" font-family="Virgil, Segoe UI Emoji" font-size="20px" fill="#000000" text-anchor="start" style="white-space: pre;" direction="ltr"></text></g><g stroke-linecap="round" transform="translate(1998.3922070683043 43.46320398267528) rotate(0 222.8046161985667 91.92719425145148)"><path d="M0.92 0.55 C98.91 1.21, 196.98 1.79, 446.39 -0.13 M-0.15 0 C89.39 2.09, 178.96 2.21, 445.18 -0.19 M444.12 -2 C443.66 47.73, 444.28 92.02, 444.14 183.05 M444.97 0.26 C445.63 60.45, 445.76 121.71, 445.06 183.52 M445.18 184.07 C331.59 182.08, 216.95 181.92, -0.48 184.7 M445.14 183.83 C331.67 185.1, 217.25 184.95, 0.12 183.66 M0.02 184.92 C-1.7 112.51, 0.46 38.96, 0.86 0.13 M0.54 184.02 C-0.3 133.15, 0.87 83.24, -0.66 0.16" stroke="#000000" stroke-width="1" fill="none"></path></g><g transform="translate(2036.7797294520792 71.18541597939884) rotate(0 192.5 62.5)"><text x="0" y="18" font-family="Virgil, Segoe UI Emoji" font-size="20px" fill="#000000" text-anchor="start" style="white-space: pre;" direction="ltr">Alerts</text><text x="0" y="43" font-family="Virgil, Segoe UI Emoji" font-size="20px" fill="#000000" text-anchor="start" style="white-space: pre;" direction="ltr"></text><text x="0" y="68" font-family="Virgil, Segoe UI Emoji" font-size="20px" fill="#000000" text-anchor="start" style="white-space: pre;" direction="ltr">1. Grand prize collected</text><text x="0" y="93" font-family="Virgil, Segoe UI Emoji" font-size="20px" fill="#000000" text-anchor="start" style="white-space: pre;" direction="ltr">2. Avg ticket cost going positive</text><text x="0" y="118" font-family="Virgil, Segoe UI Emoji" font-size="20px" fill="#000000" text-anchor="start" style="white-space: pre;" direction="ltr">3. Are prize collections below expected</text></g><g stroke-linecap="round"><g transform="translate(1862.4118986509657 299.0463460549314) rotate(0 59.10385939067328 -87.68155926000586)"><path d="M-0.14 0.99 C19.64 -28.2, 99.88 -146.96, 119.89 -176.35 M-1.68 0.46 C17.86 -28.41, 98.86 -145.14, 119.01 -174.74" stroke="#000000" stroke-width="1" fill="none"></path></g><g transform="translate(1862.4118986509657 299.0463460549314) rotate(0 59.10385939067328 -87.68155926000586)"><path d="M113.13 -145.47 C115 -156.96, 119.59 -167.13, 120.55 -174.47 M111.75 -144.86 C115.26 -156.3, 118.08 -169.8, 118.52 -174.53" stroke="#000000" stroke-width="1" fill="none"></path></g><g transform="translate(1862.4118986509657 299.0463460549314) rotate(0 59.10385939067328 -87.68155926000586)"><path d="M96.23 -157.11 C104.69 -163.95, 116 -169.5, 120.55 -174.47 M94.84 -156.49 C105.1 -163.12, 114.68 -171.97, 118.52 -174.53" stroke="#000000" stroke-width="1" fill="none"></path></g></g><g stroke-linecap="round" transform="translate(2000.8040692234872 298.07522534040254) rotate(0 311.5118962382103 42.526223256602606)"><path d="M-0.6 -0.45 C220.98 0.78, 444.1 -0.21, 623.18 0.78 M-0.07 0.19 C185.93 -0.08, 372.17 -0.4, 622.8 0.24 M623.76 -0.83 C624.22 17.45, 624.29 33.06, 623.27 84.4 M622.6 -0.28 C621.58 29.41, 621.36 58.63, 623.53 84.63 M622.63 85.22 C415.34 87.68, 207.35 87.64, 0.17 84.62 M622.79 85.41 C416.52 84.44, 210.31 84.29, 0.11 85.01 M-0.16 83.14 C1.56 51.57, 2.16 20.31, -0.65 1.48 M0.54 85.76 C-0.89 62.5, -1.06 41.24, -0.25 -0.65" stroke="#000000" stroke-width="1" fill="none"></path></g><g stroke-linecap="round"><g transform="translate(1871.3522357024963 342.9086562371889) rotate(0 52.111532032788205 -1.7486018453792553)"><path d="M-0.48 -0.81 C17.02 -1.56, 87.28 -4.41, 104.7 -4.88 M1.47 1.38 C18.82 0.83, 86.15 -2.47, 103.65 -3.63" stroke="#000000" stroke-width="1" fill="none"></path></g><g transform="translate(1871.3522357024963 342.9086562371889) rotate(0 52.111532032788205 -1.7486018453792553)"><path d="M74.73 7.86 C82.77 3.6, 92.44 3.55, 102.09 -3.61 M76.52 7.9 C81.9 5, 88.95 2.86, 104.05 -3.94" stroke="#000000" stroke-width="1" fill="none"></path></g><g transform="translate(1871.3522357024963 342.9086562371889) rotate(0 52.111532032788205 -1.7486018453792553)"><path d="M73.58 -12.63 C81.87 -11.26, 91.85 -5.68, 102.09 -3.61 M75.37 -12.59 C81.18 -10.69, 88.51 -8.02, 104.05 -3.94" stroke="#000000" stroke-width="1" fill="none"></path></g></g><g stroke-linecap="round"><g transform="translate(1856.7507631784952 386.4540374650333) rotate(0 65.4525762509777 63.09320513330354)"><path d="M0.17 -1.19 C22.05 20.17, 110.23 106.06, 132.11 127.38 M-1.2 0.8 C20.43 21.91, 108.53 105.2, 131.05 125.82" stroke="#000000" stroke-width="1" fill="none"></path></g><g transform="translate(1856.7507631784952 386.4540374650333) rotate(0 65.4525762509777 63.09320513330354)"><path d="M101.46 113.73 C115.34 116.95, 124.36 121.35, 131.55 127.1 M103.06 114.49 C111.23 117.71, 118.34 120.29, 130.79 126.29" stroke="#000000" stroke-width="1" fill="none"></path></g><g transform="translate(1856.7507631784952 386.4540374650333) rotate(0 65.4525762509777 63.09320513330354)"><path d="M115.46 98.73 C124.09 107.49, 127.95 117.42, 131.55 127.1 M117.06 99.48 C121.63 106.62, 125.05 113.15, 130.79 126.29" stroke="#000000" stroke-width="1" fill="none"></path></g></g><g stroke-linecap="round" transform="translate(2009.864708599066 459.1768246848676) rotate(0 130.5 43)"><path d="M0.57 0.49 C99.86 0.37, 197.34 -1.13, 260.19 0.65 M-0.19 0.55 C89.04 0.61, 178.48 1.6, 260.74 -0.67 M260.2 0.07 C258.91 20.59, 261.66 45.34, 262.44 87.08 M261.62 -0.89 C259.56 22.89, 259.25 47.61, 260.74 85.62 M260.13 85.69 C172 86.22, 82.01 87.67, 0.7 84.66 M261.29 86.46 C189.11 87.48, 118.77 87.05, -0.7 85.45 M1.65 85.42 C0.04 66.19, 1.93 45.12, 1.26 -1.74 M0.32 85.57 C0.16 61.18, -0.57 36.59, -0.1 0.64" stroke="#000000" stroke-width="1" fill="none"></path></g><g transform="translate(2040.864708599066 489.6768246848676) rotate(0 99.5 12.5)"><text x="99.5" y="18" font-family="Virgil, Segoe UI Emoji" font-size="20px" fill="#000000" text-anchor="middle" style="white-space: pre;" direction="ltr">Competitive Analysis</text></g><g stroke-linecap="round" transform="translate(1915.469438988373 831.1075928592982) rotate(0 80.5 61)"><path d="M105.22 3 C116 4.49, 126.97 9.67, 135.54 15.85 C144.11 22.03, 152.46 31.8, 156.63 40.1 C160.8 48.39, 161.83 56.86, 160.55 65.63 C159.27 74.41, 154.72 85.11, 148.97 92.75 C143.23 100.38, 135.44 106.77, 126.08 111.46 C116.72 116.15, 104.39 119.74, 92.8 120.88 C81.22 122.02, 67.93 120.8, 56.58 118.29 C45.23 115.78, 33.19 111.75, 24.69 105.82 C16.2 99.88, 9.65 90.82, 5.59 82.68 C1.53 74.53, -0.49 65.56, 0.34 56.94 C1.16 48.32, 4.79 38.68, 10.53 30.97 C16.27 23.25, 24.89 15.7, 34.78 10.66 C44.66 5.63, 57.03 1.79, 69.84 0.76 C82.65 -0.27, 103.42 3.1, 111.62 4.47 C119.83 5.84, 119.44 8.06, 119.08 8.99 M45.12 6.61 C54.81 1.9, 68.01 0.4, 79.52 0.33 C91.03 0.26, 103.62 2.84, 114.19 6.2 C124.75 9.56, 135.43 13.88, 142.92 20.5 C150.4 27.13, 156.2 37.31, 159.09 45.94 C161.98 54.58, 162.9 63.89, 160.28 72.3 C157.66 80.71, 150.57 89.25, 143.35 96.42 C136.13 103.59, 126.95 111.02, 116.97 115.3 C107 119.58, 95.1 121.85, 83.49 122.11 C71.89 122.37, 57.91 120.76, 47.36 116.88 C36.82 113, 27.78 105.62, 20.22 98.83 C12.65 92.04, 5.14 84.55, 1.97 76.15 C-1.2 67.76, -1.3 57.01, 1.18 48.45 C3.66 39.89, 9.56 31.91, 16.85 24.77 C24.13 17.63, 40.16 8.27, 44.88 5.61 C49.59 2.94, 44.83 7.45, 45.12 8.75" stroke="#000000" stroke-width="1" fill="none"></path></g><g transform="translate(1928.9694389883734 867.1075928592982) rotate(0 67 25)"><text x="67" y="18" font-family="Virgil, Segoe UI Emoji" font-size="20px" fill="#000000" text-anchor="middle" style="white-space: pre;" direction="ltr">gather data </text><text x="67" y="43" font-family="Virgil, Segoe UI Emoji" font-size="20px" fill="#000000" text-anchor="middle" style="white-space: pre;" direction="ltr">from MI site</text></g><g stroke-linecap="round" transform="translate(1899.7822322893908 1007.0127572406307) rotate(0 80.5 60.99999999999997)"><path d="M111.72 4.05 C122.53 6.36, 133.82 13.98, 141.43 20.85 C149.04 27.71, 154.27 36.54, 157.38 45.23 C160.49 53.92, 162.06 64.29, 160.11 72.98 C158.17 81.67, 152.71 90.38, 145.72 97.36 C138.74 104.35, 128.62 110.62, 118.2 114.87 C107.78 119.13, 94.69 122.52, 83.21 122.89 C71.72 123.25, 60.02 120.83, 49.31 117.07 C38.6 113.31, 26.61 106.96, 18.95 100.33 C11.3 93.71, 6.24 85.63, 3.38 77.32 C0.52 69, -0.15 59.05, 1.79 50.46 C3.74 41.86, 8.37 33.1, 15.05 25.74 C21.74 18.38, 31.43 10.57, 41.89 6.31 C52.35 2.06, 65.21 0.24, 77.79 0.21 C90.38 0.17, 110.17 4.54, 117.41 6.11 C124.65 7.69, 121.73 8.47, 121.23 9.65 M68.1 0.79 C79.01 -1.31, 93.12 -0.73, 104.49 1.69 C115.85 4.1, 127.57 8.93, 136.28 15.3 C144.98 21.66, 152.44 31.33, 156.7 39.88 C160.97 48.43, 163.06 57.77, 161.87 66.59 C160.68 75.41, 155.46 85.3, 149.57 92.82 C143.68 100.34, 136.29 106.74, 126.53 111.72 C116.77 116.7, 102.62 121.21, 91.02 122.69 C79.42 124.18, 67.68 123.46, 56.92 120.64 C46.16 117.83, 35.14 111.89, 26.46 105.81 C17.78 99.74, 9.24 92.59, 4.83 84.2 C0.42 75.81, -1.02 64.41, 0.01 55.46 C1.04 46.51, 5.23 38.1, 11 30.52 C16.78 22.95, 25.31 14.81, 34.66 9.99 C44.02 5.17, 61.69 3.1, 67.15 1.6 C72.61 0.11, 67.2 0.02, 67.41 1.04" stroke="#000000" stroke-width="1" fill="none"></path></g><g transform="translate(1913.2822322893912 1018.0127572406305) rotate(0 67 50)"><text x="67" y="18" font-family="Virgil, Segoe UI Emoji" font-size="20px" fill="#000000" text-anchor="middle" style="white-space: pre;" direction="ltr">gather data </text><text x="67" y="43" font-family="Virgil, Segoe UI Emoji" font-size="20px" fill="#000000" text-anchor="middle" style="white-space: pre;" direction="ltr">from </text><text x="67" y="68" font-family="Virgil, Segoe UI Emoji" font-size="20px" fill="#000000" text-anchor="middle" style="white-space: pre;" direction="ltr">competitive </text><text x="67" y="93" font-family="Virgil, Segoe UI Emoji" font-size="20px" fill="#000000" text-anchor="middle" style="white-space: pre;" direction="ltr">sites</text></g><g stroke-linecap="round" transform="translate(2307.137232353037 833.9687900287228) rotate(0 80.5 61)"><path d="M66.42 1.2 C77.08 -1.22, 90.88 0.29, 101.86 2.6 C112.84 4.91, 123.51 9.39, 132.32 15.07 C141.12 20.75, 149.77 28.58, 154.69 36.68 C159.62 44.77, 162.29 54.84, 161.88 63.66 C161.48 72.48, 157.8 81.74, 152.27 89.61 C146.75 97.47, 138.29 105.49, 128.71 110.84 C119.13 116.19, 106.47 120.22, 94.8 121.71 C83.12 123.2, 69.73 122.32, 58.66 119.77 C47.59 117.23, 36.95 112.19, 28.37 106.46 C19.79 100.73, 11.74 93.44, 7.19 85.39 C2.64 77.35, 0.52 67.1, 1.06 58.17 C1.59 49.25, 5.15 39.51, 10.41 31.84 C15.68 24.17, 22.82 17.39, 32.65 12.13 C42.47 6.87, 62.52 1.93, 69.36 0.29 C76.21 -1.36, 73.54 1.14, 73.73 2.28 M87.74 0.71 C98.91 0.5, 112.27 3.36, 122.28 7.68 C132.29 12, 141.59 19.17, 147.81 26.64 C154.02 34.11, 157.89 43.56, 159.59 52.53 C161.28 61.49, 161.68 71.75, 157.97 80.44 C154.26 89.14, 145.76 98.46, 137.33 104.71 C128.9 110.95, 118.29 115.05, 107.4 117.92 C96.5 120.79, 83.66 122.52, 71.97 121.93 C60.28 121.35, 46.93 119.24, 37.25 114.43 C27.56 109.62, 19.89 100.78, 13.85 93.1 C7.81 85.41, 2.64 76.76, 0.99 68.32 C-0.66 59.89, 0.44 50.71, 3.95 42.48 C7.45 34.25, 13.98 25.17, 22.01 18.94 C30.04 12.7, 40.78 8.17, 52.13 5.07 C63.49 1.96, 83.95 0.96, 90.12 0.33 C96.3 -0.3, 89.72 0.3, 89.19 1.28" stroke="#000000" stroke-width="1" fill="none"></path></g><g transform="translate(2316.1372323530372 869.9687900287228) rotate(0 71.5 25)"><text x="71.5" y="18" font-family="Virgil, Segoe UI Emoji" font-size="20px" fill="#000000" text-anchor="middle" style="white-space: pre;" direction="ltr">Analyze data </text><text x="71.5" y="43" font-family="Virgil, Segoe UI Emoji" font-size="20px" fill="#000000" text-anchor="middle" style="white-space: pre;" direction="ltr">for alerts</text></g><g stroke-linecap="round"><g transform="translate(2112.4050340213294 884.1125759827705) rotate(0 82.41865596851517 3.3848647755444574)"><path d="M-0.03 0.15 C27.67 1.47, 138.65 6.46, 166.34 7.58 M-1.5 -0.81 C25.99 0.21, 137.49 4.4, 165.25 5.92" stroke="#000000" stroke-width="1" fill="none"></path></g><g transform="translate(2112.4050340213294 884.1125759827705) rotate(0 82.41865596851517 3.3848647755444574)"><path d="M136.88 14.45 C147.13 11.18, 155.04 9.12, 164.05 7.59 M137.03 15.25 C144.66 11.29, 153.13 9.42, 166.2 6.01" stroke="#000000" stroke-width="1" fill="none"></path></g><g transform="translate(2112.4050340213294 884.1125759827705) rotate(0 82.41865596851517 3.3848647755444574)"><path d="M137.8 -6.05 C147.71 -2.86, 155.32 1.54, 164.05 7.59 M137.95 -5.25 C145.34 -3.11, 153.53 1.11, 166.2 6.01" stroke="#000000" stroke-width="1" fill="none"></path></g></g><g stroke-linecap="round"><g transform="translate(1548.8447509538225 1032.5913196307474) rotate(0 61.564251605408685 2.095949017779702)"><path d="M-1.09 1.05 C19.7 1.65, 103.4 3.35, 124.21 3.64 M0.55 0.55 C21.32 0.84, 103.34 1.44, 123.82 2.03" stroke="#000000" stroke-width="1" fill="none"></path></g><g transform="translate(1548.8447509538225 1032.5913196307474) rotate(0 61.564251605408685 2.095949017779702)"><path d="M97.21 13.59 C104.38 10.69, 110.18 7.8, 125.58 1.02 M96.36 12.33 C105.08 7.9, 113.38 5.7, 124.1 1.43" stroke="#000000" stroke-width="1" fill="none"></path></g><g transform="translate(1548.8447509538225 1032.5913196307474) rotate(0 61.564251605408685 2.095949017779702)"><path d="M97.55 -6.93 C104.64 -4.58, 110.35 -2.2, 125.58 1.02 M96.7 -8.19 C105.39 -6.34, 113.58 -2.27, 124.1 1.43" stroke="#000000" stroke-width="1" fill="none"></path></g></g></svg>